<svg width="128" height="65" viewBox="0 0 128 65" fill="none" xmlns="http://www.w3.org/2000/svg">
<g clip-path="url(#clip0_48_1024)">
<path d="M21.7954 57.2471L122.533 55.9446L83.4966 45.2054L87.8965 35.8981L112.864 32.4718L106.468 30.9888L89.2779 30.2217L21.7954 57.2471Z" fill="#172B4D"/>
<path d="M77.5105 9.71559L74.4407 9.76673L48.9108 0.254883L77.7663 16.6193L82.4732 12.7328L77.5105 9.71559Z" fill="#36B37E"/>
<path d="M77.5107 9.71504L127.189 0.612305L102.376 24.6987L77.5107 9.71504Z" fill="#172B4D"/>
<path d="M48.9108 0.254883L98.4869 28.4324L87.3336 30.478L60.013 32.4724L48.9108 0.254883Z" fill="white" stroke="#36B37E" stroke-width="0.633632" stroke-miterlimit="10" stroke-linejoin="round"/>
<path d="M98.4871 28.4319L127.189 0.612305L106.468 30.9888L98.4871 28.4319Z" fill="white" stroke="#36B37E" stroke-width="0.633632" stroke-miterlimit="10" stroke-linejoin="round"/>
<path d="M77.7665 16.619L90.6083 6.0332L91.9385 7.10712L87.8967 22.3977L77.7665 16.619Z" fill="white" stroke="#36B37E" stroke-width="0.633632" stroke-miterlimit="10" stroke-linejoin="round"/>
<path d="M91.9383 7.10742L103.552 23.5742L98.4871 28.4324L87.8965 22.398L91.9383 7.10742Z" fill="white" stroke="#36B37E" stroke-width="0.633632" stroke-miterlimit="10" stroke-linejoin="round"/>
<path d="M106.469 30.9886L87.3339 30.4772L98.4872 28.4316L106.469 30.9886Z" fill="white" stroke="#36B37E" stroke-width="0.633632" stroke-miterlimit="10" stroke-linejoin="round"/>
<path d="M40.3668 23.1132L36.2738 23.8291L0.255699 16.5674L42.2086 32.2159L47.683 26.0281L40.3668 23.1132Z" fill="white" stroke="#36B37E" stroke-width="0.633632" stroke-miterlimit="10" stroke-linejoin="round"/>
<path d="M40.3669 23.1134L104.627 0.612305L76.6408 37.688L40.3669 23.1134Z" fill="#C5E9DA" stroke="#36B37E" stroke-width="0.633632" stroke-miterlimit="10"/>
<path d="M0.255699 16.5674L72.3431 43.4153L57.8643 48.5292L21.8461 56.8648L0.255699 16.5674Z" fill="white" stroke="#36B37E" stroke-width="0.633632" stroke-miterlimit="10" stroke-linejoin="round"/>
<path d="M72.3431 43.4156L104.626 0.612305L83.4964 45.2055L72.3431 43.4156Z" fill="white" stroke="#36B37E" stroke-width="0.633632" stroke-miterlimit="10" stroke-linejoin="round"/>
<path d="M42.2086 32.2166L57.0967 15.4941L59.0921 16.5681L56.9433 37.6884L42.2086 32.2166Z" fill="#36B37E"/>
<path d="M59.0921 16.5674L77.9709 35.949L72.343 43.4153L56.9433 37.6878L59.0921 16.5674Z" fill="white" stroke="#36B37E" stroke-width="0.633632" stroke-miterlimit="10" stroke-linejoin="round"/>
<path d="M83.4964 45.2049L57.8642 48.5289L72.3431 43.415L83.4964 45.2049Z" fill="white" stroke="#36B37E" stroke-width="0.633632" stroke-miterlimit="10" stroke-linejoin="round"/>
<mask id="mask0_48_1024" style="mask-type:alpha" maskUnits="userSpaceOnUse" x="-1" y="16" width="74" height="41">
<path d="M0.166443 16.7588L72.2077 43.3089L57.9414 48.2228L21.9232 56.5584L0.166443 16.7588Z" fill="white" stroke="#36B37E" stroke-width="0.633632" stroke-miterlimit="10" stroke-linejoin="round"/>
</mask>
<g mask="url(#mask0_48_1024)">
<path d="M43.5389 44.4895L35.7111 44.7452L32.0786 38.4551L24.5577 38.7619L28.0879 45.0009L20.6694 45.2054L24.0973 51.4955L31.6693 51.3421L39.3948 51.1375L43.1808 57.7345L51.2644 57.6322L55.255 64.3825H63.6456L59.5526 57.5299L55.5108 50.8307L47.3249 50.9841L43.5389 44.4895Z" fill="#C5E9DA"/>
<path d="M39.753 38.0973L36.0693 31.8584L28.4974 32.2675L32.0787 38.4553L39.753 38.0973Z" fill="#C5E9DA"/>
<path d="M51.5203 44.2339L47.6832 37.7393L39.753 38.0972L43.539 44.4896L51.5203 44.2339Z" fill="#36B37E"/>
<path d="M55.7667 37.4328L51.8272 30.9893L43.8459 31.4495L47.6831 37.7396L55.7667 37.4328Z" fill="#172B4D"/>
<path d="M59.7574 43.9268L51.5203 44.2337L55.511 50.8306L63.8504 50.626L72.4457 50.4215L68.1992 43.6711L64.0551 37.0742L55.7668 37.4322L59.7574 43.9268Z" fill="#36B37E"/>
<path d="M17.2416 39.0686L24.5578 38.7618L21.1299 32.6763L28.4972 32.2672L25.0182 26.1816L17.7532 26.6419L10.6417 27.1021L13.916 33.0343L6.90683 33.4434L-6.10352e-05 33.8013L3.12083 39.6823L10.13 39.3755L13.4044 45.461L20.6694 45.2053L17.2416 39.0686Z" fill="#36B37E"/>
<path d="M6.29282 45.7166L9.56719 51.8022L16.7299 51.6487L13.4044 45.4609L6.29282 45.7166Z" fill="#36B37E"/>
<path d="M0.613831 21.8346L3.73472 27.5622L10.6416 27.1019L7.46956 21.3232L0.613831 21.8346Z" fill="#36B37E"/>
<path d="M36.0693 31.8582L43.8459 31.4491L40.1111 25.2613L36.4786 19.1758L28.9577 19.7383L21.5904 20.2497L25.0182 26.1818L32.4879 25.7216L36.0693 31.8582Z" fill="#36B37E"/>
<path d="M56.0225 24.2383L47.9901 24.7497L51.8272 30.9886L60.0132 30.5795L56.0225 24.2383Z" fill="#36B37E"/>
<path d="M72.5991 36.6649L68.3526 30.1191L60.0132 30.5794L64.055 37.074L72.5991 36.6649Z" fill="#36B37E"/>
<path d="M16.73 51.6495L20.1579 57.9907L27.6276 57.8885L24.0974 51.4961L16.73 51.6495Z" fill="#36B37E"/>
</g>
</g>
<defs>
<clipPath id="clip0_48_1024">
<rect width="127.445" height="64.3839" fill="white"/>
</clipPath>
</defs>
</svg>
